<svg xmlns="http://www.w3.org/2000/svg" width="721.47" height="123.28" viewBox="0 0 721.47 123.28">
    <path id="Path_32139" data-name="Path 32139" d="M498.43,90.97H483.3a3.383,3.383,0,0,0-2.98,1.78l-36.99,68.34a2.583,2.583,0,0,1-4.54,0L401.8,92.75a3.383,3.383,0,0,0-2.98-1.78H383.69a3.393,3.393,0,0,0-3.39,3.39V209.14a3.393,3.393,0,0,0,3.39,3.39h12.39a3.393,3.393,0,0,0,3.39-3.39V131.61a1.685,1.685,0,0,1,3.16-.81l31.51,57.55a5.685,5.685,0,0,0,4.98,2.95h3.87a5.7,5.7,0,0,0,4.99-2.96l31.34-57.51a1.683,1.683,0,0,1,3.16.81v77.5a3.393,3.393,0,0,0,3.39,3.39h12.56a3.393,3.393,0,0,0,3.39-3.39V94.37a3.393,3.393,0,0,0-3.39-3.39Zm79.68,2.15a3.383,3.383,0,0,0-3.15-2.15H562.8a3.388,3.388,0,0,0-3.15,2.14L514.08,207.89a3.4,3.4,0,0,0,3.15,4.65h13.04a3.412,3.412,0,0,0,3.17-2.18l9.93-25.9a7.722,7.722,0,0,1,7.21-4.96h36.29a7.72,7.72,0,0,1,7.2,4.93l10.08,25.95a3.4,3.4,0,0,0,3.16,2.16H620.2a3.391,3.391,0,0,0,3.15-4.64L578.11,93.12Zm5.58,72.16H553.45a3.26,3.26,0,0,1-3.04-4.44l17.04-44.06a1.512,1.512,0,0,1,2.83.02l16.47,44.08a3.265,3.265,0,0,1-3.05,4.41Zm145.38-14.21h-34.8a3.393,3.393,0,0,0-3.39,3.39v7.43a3.393,3.393,0,0,0,3.39,3.39h18.72a3.393,3.393,0,0,1,3.39,3.39v4.03a14.542,14.542,0,0,1-4.26,10.27,47.151,47.151,0,0,1-11.91,8.85,38.828,38.828,0,0,1-17.71,4.28,34.993,34.993,0,0,1-15.57-3.51,39.047,39.047,0,0,1-12.41-9.5,45.153,45.153,0,0,1-8.22-14.04,49.084,49.084,0,0,1-2.99-17.29,53.236,53.236,0,0,1,2.65-16.78,43.715,43.715,0,0,1,7.62-14.13,38.33,38.33,0,0,1,11.98-9.76,33.057,33.057,0,0,1,15.57-3.68,38.107,38.107,0,0,1,19.17,4.97,33.165,33.165,0,0,1,11.89,11.66,3.393,3.393,0,0,0,4.88,1.01l9.21-6.64a3.416,3.416,0,0,0,.95-4.48A47.273,47.273,0,0,0,710.91,97.4q-11.8-7.275-29.26-7.28A54.638,54.638,0,0,0,658.55,95a56.654,56.654,0,0,0-18.31,13.27,61.909,61.909,0,0,0-12.06,19.52,63.674,63.674,0,0,0-4.36,23.46,65.034,65.034,0,0,0,4.36,23.63,63.722,63.722,0,0,0,12.06,19.86,58.123,58.123,0,0,0,18.14,13.61,51.144,51.144,0,0,0,22.59,5.05q17.88,0,32.08-12.7a1.994,1.994,0,0,1,3.34,1.47v6.99a3.393,3.393,0,0,0,3.39,3.39h9.3a3.393,3.393,0,0,0,3.39-3.39V154.48a3.393,3.393,0,0,0-3.39-3.39Zm118.57,0h-34.8a3.393,3.393,0,0,0-3.39,3.39v7.43a3.393,3.393,0,0,0,3.39,3.39h18.72a3.393,3.393,0,0,1,3.39,3.39v4.03a14.542,14.542,0,0,1-4.26,10.27,47.151,47.151,0,0,1-11.91,8.85,38.828,38.828,0,0,1-17.71,4.28,34.993,34.993,0,0,1-15.57-3.51,39.047,39.047,0,0,1-12.41-9.5,45.153,45.153,0,0,1-8.22-14.04,49.084,49.084,0,0,1-2.99-17.29,53.236,53.236,0,0,1,2.65-16.78,43.715,43.715,0,0,1,7.62-14.13,38.33,38.33,0,0,1,11.98-9.76,33.057,33.057,0,0,1,15.57-3.68,38.107,38.107,0,0,1,19.17,4.97,33.165,33.165,0,0,1,11.89,11.66,3.393,3.393,0,0,0,4.88,1.01l9.21-6.64a3.416,3.416,0,0,0,.95-4.48A47.273,47.273,0,0,0,829.48,97.4q-11.8-7.275-29.26-7.28A54.638,54.638,0,0,0,777.12,95a56.654,56.654,0,0,0-18.31,13.27,61.909,61.909,0,0,0-12.06,19.52,63.674,63.674,0,0,0-4.36,23.46,65.034,65.034,0,0,0,4.36,23.63,63.722,63.722,0,0,0,12.06,19.86,58.123,58.123,0,0,0,18.14,13.61,51.144,51.144,0,0,0,22.59,5.05q17.88,0,32.08-12.7a1.994,1.994,0,0,1,3.34,1.47v6.99a3.393,3.393,0,0,0,3.39,3.39h9.3a3.393,3.393,0,0,0,3.39-3.39V154.48a3.393,3.393,0,0,0-3.39-3.39ZM961.3,109.64a59.8,59.8,0,0,0-18.31-14.13,51.821,51.821,0,0,0-23.7-5.39,53.393,53.393,0,0,0-23.36,5.05,58.427,58.427,0,0,0-18.48,13.61,64.778,64.778,0,0,0-12.24,19.69,62.083,62.083,0,0,0-4.45,23.29,64.689,64.689,0,0,0,16.08,42.55,59.078,59.078,0,0,0,18.4,13.87,53.305,53.305,0,0,0,23.7,5.22,52.507,52.507,0,0,0,23.19-5.05,60.2,60.2,0,0,0,18.57-13.53,61.451,61.451,0,0,0,12.24-19.6,63.475,63.475,0,0,0,.17-45.8,65.031,65.031,0,0,0-11.81-19.78Zm2.34,58.21a45.82,45.82,0,0,1-7.53,14.21,38.448,38.448,0,0,1-12.06,10.19,33.717,33.717,0,0,1-16.34,3.85,34.083,34.083,0,0,1-16.09-3.68,38.2,38.2,0,0,1-12.24-9.84,45.1,45.1,0,0,1-7.79-14.21,51.067,51.067,0,0,1-2.74-16.61,49.806,49.806,0,0,1,2.65-16.18,44.885,44.885,0,0,1,7.62-14.13,39.216,39.216,0,0,1,12.15-10.02,36.438,36.438,0,0,1,32.26-.17,39.1,39.1,0,0,1,12.15,9.76,44.441,44.441,0,0,1,7.79,14.04,51.931,51.931,0,0,1,.17,32.78Zm133.68-39.38a64.586,64.586,0,0,0-12.24-19.69,58.426,58.426,0,0,0-18.48-13.61,53.943,53.943,0,0,0-23.36-5.05,52.611,52.611,0,0,0-23.7,5.39,59.645,59.645,0,0,0-18.31,14.13,64.792,64.792,0,0,0-11.81,19.78,63.475,63.475,0,0,0,.17,45.8,61.451,61.451,0,0,0,12.24,19.6,60.2,60.2,0,0,0,18.57,13.53,53.572,53.572,0,0,0,23.19,5.05,54.363,54.363,0,0,0,23.7-5.22,59.041,59.041,0,0,0,18.4-13.87,62.594,62.594,0,0,0,11.89-19.78,63.562,63.562,0,0,0-.26-46.06Zm-26.38,39.89a44.906,44.906,0,0,1-7.79,14.21,37.955,37.955,0,0,1-12.24,9.84,34.685,34.685,0,0,1-16.09,3.68,34.3,34.3,0,0,1-16.34-3.85,38.448,38.448,0,0,1-12.06-10.19,45.821,45.821,0,0,1-7.53-14.21,51.676,51.676,0,0,1-2.57-16.09,50.8,50.8,0,0,1,2.74-16.69,44.247,44.247,0,0,1,7.79-14.04,39.1,39.1,0,0,1,12.15-9.76,36.438,36.438,0,0,1,32.26.17,39.216,39.216,0,0,1,12.15,10.02,44.976,44.976,0,0,1,7.62,14.13,50.835,50.835,0,0,1,2.65,16.18,52.144,52.144,0,0,1-2.74,16.61Z" transform="translate(-380.3 -90.12)" fill="#fff"/>
  </svg>
  