<svg data-name="Group 68" xmlns="http://www.w3.org/2000/svg" width="20" height="20" viewBox="0 0 20 20">
    <defs>
        <clipPath id="uyaomhjdra">
            <path data-name="Rectangle 131" style="fill:#fe6d13" d="M0 0h20v20H0z"/>
        </clipPath>
    </defs>
    <g data-name="Group 68" style="clip-path:url(#uyaomhjdra)">
        <path data-name="Path 199746" d="M8.55 1c.584.2 1.184.353 1.748.6a12.726 12.726 0 0 1 3.3 2.153l-1.712 1.708s-.032-.026-.058-.052L8.177 1.757a.416.416 0 0 1-.049-.629A1.273 1.273 0 0 1 8.318 1z" transform="translate(-1.334 -.167)" style="fill:#fe6d13"/>
        <path data-name="Path 199747" d="M22.106 14.561c-.213.378-.481.418-.785.114l-3.582-3.582a1.215 1.215 0 0 1-.1-.113l1.713-1.713c.118.142.252.3.378.456a12.016 12.016 0 0 1 2.205 3.957c.066.214.117.433.175.649z" transform="translate(-2.939 -1.544)" style="fill:#fe6d13"/>
        <path data-name="Path 199748" d="m10.155 9.922 1.745 1.742c-.04.043-.086.1-.135.144l-8.778 8.776c-.316.316-.493.316-.81 0-.332-.333-.667-.663-1-1a.421.421 0 0 1-.007-.686q4.455-4.458 8.912-8.913c.023-.023.047-.042.07-.063" transform="translate(-.167 -1.654)" style="fill:#fe6d13"/>
        <path data-name="Path 199749" d="M18.313 7.25a1.455 1.455 0 0 1-.178.311Q16.706 9 15.267 10.432a.409.409 0 0 1-.631 0q-1.144-1.132-2.282-2.28a.411.411 0 0 1 .006-.644q1.419-1.422 2.84-2.841a.419.419 0 0 1 .659 0Q17 5.794 18.127 6.932a1.555 1.555 0 0 1 .186.318" transform="translate(-2.034 -.751)" style="fill:#fe6d13"/>
    </g>
</svg>
