<svg xmlns="http://www.w3.org/2000/svg" width="62" height="70.013" viewBox="0 0 62 70.013">
    <g id="icon" transform="translate(-48 -1279.99)">
      <g id="icon-2" data-name="icon">
        <path id="icon_copy_25" data-name="icon copy 25" d="M77.349,1349.6l-11.82-6.14A32.616,32.616,0,0,1,48,1314.5v-25.91a3,3,0,0,1,1.942-2.808c4.716-1.742,17.009-5.792,29.265-5.792,12.137,0,24.23,4.045,28.866,5.784a3,3,0,0,1,1.927,2.8V1314.5a32.613,32.613,0,0,1-17.528,28.96l-11.82,6.14a3.583,3.583,0,0,1-3.3,0Zm-11.364-47.73v5.32a17.89,17.89,0,1,0,26.029,0v-5.318a13.022,13.022,0,1,0-26.029,0Zm8.135,25.06a.674.674,0,0,1,.156-.413l1.4-3.943a5.7,5.7,0,1,1,6.646,0l1.4,3.941a.675.675,0,0,1,.158.415c0,.905-2.185,1.64-4.88,1.64S74.12,1327.836,74.12,1326.93Zm-1.629-24.17h0v-.889a6.511,6.511,0,1,1,13.014,0v.888a17.836,17.836,0,0,0-13.014,0Z" fill="#85a7c3"/>
      </g>
    </g>
  </svg>
  