<svg xmlns="http://www.w3.org/2000/svg" width="56.006" height="56.007" viewBox="0 0 56.006 56.007">
    <g id="icon" transform="translate(-750.997 -1586.997)">
      <g id="icon-2" data-name="icon">
        <path id="icon-3" data-name="icon" d="M788.334,1624.334l15.369-1.024a3.532,3.532,0,0,0,3.3-3.524v-9.569a3.533,3.533,0,0,0-3.3-3.525l-15.37-1.025-1.025-15.37a3.532,3.532,0,0,0-3.524-3.3h-9.569a3.532,3.532,0,0,0-3.524,3.3l-1.024,15.37-15.37,1.024a3.532,3.532,0,0,0-3.3,3.524v9.569a3.532,3.532,0,0,0,3.3,3.525l15.369,1.025,1.025,15.37a3.533,3.533,0,0,0,3.524,3.3h9.569a3.532,3.532,0,0,0,3.524-3.3Z" fill="#85a7c3"/>
      </g>
    </g>
  </svg>
  